<svg width="27" height="24" viewBox="0 0 27 24" fill="none" xmlns="http://www.w3.org/2000/svg">
<g clip-path="url(#clip0_506_4165)">
<path fill-rule="evenodd" clip-rule="evenodd" d="M7.62793 21.9066L11.1211 22.8342V21.6211L11.4063 21.3357H13.4024V22.7628V23.7618H11.2637L8.626 22.6201L7.62793 21.9066Z" fill="#CDBDB2"/>
<path fill-rule="evenodd" clip-rule="evenodd" d="M19.0343 21.9066L15.6123 22.8342V21.6211L15.3272 21.3357H13.3311V22.7628V23.7618H15.4698L18.1075 22.6201L19.0343 21.9066Z" fill="#CDBDB2"/>
<path fill-rule="evenodd" clip-rule="evenodd" d="M11.4062 19.2662L11.1211 21.621L11.4775 21.3356H15.1846L15.6123 21.621L15.3272 19.2662L14.7568 18.9094L11.9052 18.9808L11.4062 19.2662Z" fill="#393939"/>
<path fill-rule="evenodd" clip-rule="evenodd" d="M9.48145 3.35376L11.1924 7.34974L11.9766 18.9809H14.7568L15.6123 7.34974L17.1807 3.35376H9.48145Z" fill="#F89C35"/>
<path fill-rule="evenodd" clip-rule="evenodd" d="M1.9961 12.1307L0 17.9106L4.99026 17.6251H8.19829V15.1277L8.05569 9.98999L7.34282 10.5609L1.9961 12.1307Z" fill="#F89D35"/>
<path fill-rule="evenodd" clip-rule="evenodd" d="M5.77441 12.7729L11.6201 12.9156L10.9785 15.9126L8.19825 15.1991L5.77441 12.7729Z" fill="#D87C30"/>
<path fill-rule="evenodd" clip-rule="evenodd" d="M5.77441 12.8442L8.19825 15.1276V17.411L5.77441 12.8442Z" fill="#EA8D3A"/>
<path fill-rule="evenodd" clip-rule="evenodd" d="M8.19824 15.199L11.0498 15.9126L11.9766 18.9809L11.335 19.3377L8.19824 17.4824V15.199Z" fill="#F89D35"/>
<path fill-rule="evenodd" clip-rule="evenodd" d="M8.19826 17.4824L7.62793 21.9066L11.4063 19.2664L8.19826 17.4824Z" fill="#EB8F35"/>
<path fill-rule="evenodd" clip-rule="evenodd" d="M11.6201 12.9155L11.9766 18.9809L10.9072 15.8769L11.6201 12.9155Z" fill="#EA8E3A"/>
<path fill-rule="evenodd" clip-rule="evenodd" d="M4.91895 17.5538L8.19825 17.4824L7.62792 21.9066L4.91895 17.5538Z" fill="#D87C30"/>
<path fill-rule="evenodd" clip-rule="evenodd" d="M1.56836 23.8331L7.62796 21.9065L4.91896 17.5537L0 17.9105L1.56836 23.8331Z" fill="#EB8F35"/>
<path fill-rule="evenodd" clip-rule="evenodd" d="M11.1924 7.34961L8.12698 9.91848L5.77441 12.7727L11.6201 12.9868L11.1924 7.34961Z" fill="#E8821E"/>
<path fill-rule="evenodd" clip-rule="evenodd" d="M7.62793 21.9066L11.4063 19.2664L11.1211 21.5498V22.8342L8.55473 22.3347L7.62793 21.9066Z" fill="#DFCEC3"/>
<path fill-rule="evenodd" clip-rule="evenodd" d="M19.0342 21.9066L15.3271 19.2664L15.6123 21.5498V22.8342L18.1787 22.3347L19.0342 21.9066Z" fill="#DFCEC3"/>
<path fill-rule="evenodd" clip-rule="evenodd" d="M10.0518 14.2L10.8359 15.8412L8.05566 15.1276L10.0518 14.2Z" fill="#393939"/>
<path fill-rule="evenodd" clip-rule="evenodd" d="M1.49707 0L11.1924 7.34974L9.55276 3.35376L1.49707 0Z" fill="#E88F35"/>
<path fill-rule="evenodd" clip-rule="evenodd" d="M1.49708 0L0.213867 3.92462L0.926764 8.20601L0.427736 8.49147L1.14063 9.13368L0.570314 9.63314L1.3545 10.3467L0.855471 10.7749L1.9961 12.202L7.34282 10.5608C9.95676 8.46768 11.24 7.39728 11.1924 7.34974C11.1449 7.30214 7.91309 4.85226 1.49708 0Z" fill="#8E5A30"/>
<path fill-rule="evenodd" clip-rule="evenodd" d="M24.6663 12.1307L26.6624 17.9106L21.6721 17.6251H18.4641V15.1277L18.6066 9.98999L19.3196 10.5609L24.6663 12.1307Z" fill="#F89D35"/>
<path fill-rule="evenodd" clip-rule="evenodd" d="M20.8877 12.7729L15.042 12.9156L15.6836 15.9126L18.4639 15.1991L20.8877 12.7729Z" fill="#D87C30"/>
<path fill-rule="evenodd" clip-rule="evenodd" d="M20.8879 12.8442L18.4641 15.1276V17.411L20.8879 12.8442Z" fill="#EA8D3A"/>
<path fill-rule="evenodd" clip-rule="evenodd" d="M18.4639 15.199L15.6123 15.9126L14.6855 18.9809L15.3271 19.3377L18.4639 17.4824V15.199Z" fill="#F89D35"/>
<path fill-rule="evenodd" clip-rule="evenodd" d="M18.4639 17.4824L19.0342 21.9066L15.3271 19.3377L18.4639 17.4824Z" fill="#EB8F35"/>
<path fill-rule="evenodd" clip-rule="evenodd" d="M15.042 12.9155L14.6855 18.9809L15.7549 15.8769L15.042 12.9155Z" fill="#EA8E3A"/>
<path fill-rule="evenodd" clip-rule="evenodd" d="M21.7434 17.5538L18.4641 17.4824L19.0344 21.9066L21.7434 17.5538Z" fill="#D87C30"/>
<path fill-rule="evenodd" clip-rule="evenodd" d="M25.0938 23.8331L19.0342 21.9065L21.7432 17.5537L26.6622 17.9105L25.0938 23.8331Z" fill="#EB8F35"/>
<path fill-rule="evenodd" clip-rule="evenodd" d="M15.4697 7.34961L18.5352 9.91848L20.8877 12.7727L15.042 12.9868L15.4697 7.34961Z" fill="#E8821E"/>
<path fill-rule="evenodd" clip-rule="evenodd" d="M16.6104 14.2L15.8262 15.8412L18.6065 15.1276L16.6104 14.2Z" fill="#393939"/>
<path fill-rule="evenodd" clip-rule="evenodd" d="M25.1653 0L15.47 7.34974L17.1096 3.35376L25.1653 0Z" fill="#E88F35"/>
<path fill-rule="evenodd" clip-rule="evenodd" d="M25.1651 0L26.4483 3.92462L25.7354 8.20601L26.2344 8.49147L25.5216 9.13368L26.0919 9.63314L25.3077 10.3467L25.8067 10.7749L24.6661 12.202L19.3194 10.5608C16.7054 8.46768 15.4222 7.39728 15.4698 7.34974C15.5173 7.30214 18.7491 4.85226 25.1651 0Z" fill="#8E5A30"/>
</g>
<defs>
<clipPath id="clip0_506_4165">
<rect width="26.6623" height="23.8331" fill="white"/>
</clipPath>
</defs>
</svg>
