<svg width="27" height="27" viewBox="0 0 27 27" fill="none" xmlns="http://www.w3.org/2000/svg">
<g clip-path="url(#clip0_506_4174)">
<path fill-rule="evenodd" clip-rule="evenodd" d="M13.3333 0C20.6971 0 26.6667 5.96953 26.6667 13.3333C26.6667 20.6971 20.6971 26.6667 13.3333 26.6667C5.96953 26.6667 0 20.6971 0 13.3333C0 5.96953 5.96953 0 13.3333 0Z" fill="url(#paint0_radial_506_4174)"/>
<path d="M8.47361 10.2973C11.1576 7.67859 15.5092 7.67859 18.1932 10.2973L18.5163 10.6124C18.6505 10.7433 18.6505 10.9557 18.5163 11.0866L17.4113 12.1647C17.3441 12.2301 17.2353 12.2301 17.1683 12.1647L16.7237 11.731C14.8513 9.90412 11.8155 9.90412 9.94308 11.731L9.46708 12.1955C9.39995 12.2609 9.29115 12.2609 9.22408 12.1955L8.11908 11.1173C7.98488 10.9864 7.98488 10.7741 8.11908 10.6432L8.47361 10.2973ZM20.4785 12.5269L21.4619 13.4864C21.5961 13.6173 21.5961 13.8296 21.4619 13.9605L17.0275 18.2871C16.8933 18.4181 16.6757 18.4181 16.5415 18.2871L13.3942 15.2165C13.3606 15.1837 13.3062 15.1837 13.2727 15.2165L10.1255 18.2871C9.99128 18.4181 9.77368 18.4181 9.63948 18.2871L5.20489 13.9605C5.0707 13.8296 5.0707 13.6173 5.20489 13.4863L6.18835 12.5269C6.32255 12.3959 6.54013 12.3959 6.67435 12.5269L9.82168 15.5976C9.85521 15.6303 9.90961 15.6303 9.94315 15.5976L13.0903 12.5269C13.2245 12.3959 13.4421 12.3959 13.5763 12.5268C13.5763 12.5269 13.5763 12.5269 13.5763 12.5269L16.7237 15.5976C16.7573 15.6303 16.8117 15.6303 16.8452 15.5976L19.9925 12.5269C20.1267 12.3959 20.3443 12.3959 20.4785 12.5269Z" fill="white"/>
</g>
<defs>
<radialGradient id="paint0_radial_506_4174" cx="0" cy="0" r="1" gradientUnits="userSpaceOnUse" gradientTransform="translate(0 13.3333) scale(26.6667)">
<stop stop-color="#5D9DF6"/>
<stop offset="1" stop-color="#006FFF"/>
</radialGradient>
<clipPath id="clip0_506_4174">
<rect width="26.6667" height="26.6667" fill="white"/>
</clipPath>
</defs>
</svg>
